<svg xmlns="http://www.w3.org/2000/svg" width="164" height="65" viewBox="0 0 164 65" fill="none">
  <path d="M45.6562 5.74069C45.6562 2.66539 47.9178 0.641602 50.7249 0.641602C52.4835 0.641602 53.6965 1.40967 54.553 2.47337L53.5777 3.09513C52.9559 2.29659 51.9074 1.73578 50.7249 1.73578C48.567 1.73578 46.9272 3.37554 46.9272 5.74069C46.9272 8.10583 48.567 9.74558 50.7249 9.74558C51.9074 9.74558 52.8827 9.18477 53.3856 8.68188V6.68552H49.9873V5.59133H54.5987V9.13906C53.6813 10.1723 52.3372 10.852 50.7279 10.852C47.9208 10.852 45.6593 8.79769 45.6593 5.73764L45.6562 5.74069Z" fill="white"/>
  <path d="M64.6635 10.6595L62.1673 6.74302H60.1862V10.6595H58.9609V0.802734H62.9201C64.7245 0.802734 66.0228 1.95483 66.0228 3.7744C66.0228 5.59398 64.7976 6.52358 63.4504 6.64245L66.1112 10.6626H64.6635V10.6595ZM64.7519 3.7744C64.7519 2.65279 63.9381 1.89692 62.7708 1.89692H60.1831V5.66409H62.7708C63.9381 5.66409 64.7519 4.88078 64.7519 3.77135V3.7744Z" fill="white"/>
  <path d="M74.7952 0.802734H73.2713L69.2969 10.6595H70.7019L71.5736 8.45593L71.9424 7.37699L74.0272 2.05541L76.1271 7.37699L76.4807 8.45593L77.3524 10.6595H78.7574L74.7983 0.802734H74.7952Z" fill="white"/>
  <path d="M84.5682 10.6595L80.5938 0.802734H81.9988L85.324 9.31542L88.6493 0.802734H90.0543L86.0951 10.6595H84.5743H84.5682Z" fill="white"/>
  <path d="M93.7031 10.6595V0.802734H94.9284V10.6595H93.7031Z" fill="white"/>
  <path d="M102.032 10.6595V1.89692H98.9141V0.802734H106.39V1.89692H103.257V10.6595H102.032Z" fill="white"/>
  <path d="M113.245 10.6595V6.49311L109.359 0.802734H110.792L113.852 5.38368L116.912 0.802734H118.344L114.474 6.49311V10.6595H113.248H113.245Z" fill="white"/>
  <path d="M75.0717 9.70838L74.0156 8.65234L72.9596 9.70838L74.0156 10.7644L75.0717 9.70838Z" fill="white"/>
  <path d="M20.6854 47.127L18.1465 40.5833H4.58659L2.04771 47.127C1.87703 47.5294 1.58748 47.7305 1.18821 47.7305H0.414062L11.7765 18.8916H12.2063L23.5687 47.7305H21.5449C21.1426 47.7305 20.8561 47.5294 20.6854 47.127ZM17.7168 39.5074L11.3894 23.1495L5.01938 39.5074H17.7168Z" fill="white"/>
  <path d="M23.9806 48.008H21.5484C21.0333 48.008 20.6462 47.7398 20.4329 47.2369V47.2277L17.958 40.8638H4.77905L2.30724 47.2277C2.08779 47.7428 1.70071 48.008 1.18562 48.008H0L11.5849 18.6113H12.3957L23.9806 48.008ZM20.9449 47.0205C21.0729 47.3161 21.2589 47.4503 21.5484 47.4503H23.1607L12.0177 19.166H11.9659L0.822928 47.4503H1.18866C1.4782 47.4503 1.66414 47.3161 1.79215 47.0174L4.39807 40.3061H18.339L20.9449 47.0205ZM18.1226 39.7849H4.61142L11.3899 22.3785L18.1226 39.7849ZM5.4252 39.2301H17.3088L11.3868 23.9207L5.4252 39.2301Z" fill="white"/>
  <path d="M49.0575 47.7308C48.6856 47.7308 48.3534 47.5448 48.0669 47.1699L41.2214 39.1205C40.3893 38.1147 39.8072 37.2918 39.478 36.6457C39.1488 35.9995 38.9843 35.3198 38.9843 34.6005C38.9843 33.9392 39.1549 33.3814 39.4993 32.9212C39.8438 32.4609 40.2735 32.0373 40.7916 31.6502C41.3067 31.2631 41.8614 30.8761 42.4497 30.489C43.0379 30.1019 43.5896 29.6721 44.1077 29.1967C44.6228 28.7243 45.0556 28.1635 45.4 27.5173C45.7444 26.8712 45.9151 26.0909 45.9151 25.1704C45.9151 23.5642 45.3909 22.2933 44.3454 21.3606C43.297 20.428 41.8858 19.9616 40.1059 19.9616H34.7691V47.7247H32.1875V18.8857H40.5813C43.108 18.8857 45.1287 19.4374 46.6496 20.5438C48.1705 21.6502 48.9325 23.1192 48.9325 24.9571C48.9325 25.9324 48.7313 26.7645 48.329 27.4533C47.9267 28.1421 47.4329 28.7304 46.8447 29.218C46.2565 29.7057 45.6164 30.1232 44.9306 30.4676C44.2449 30.812 43.6048 31.1565 43.0166 31.5009C42.4283 31.8453 41.9346 32.1958 41.5323 32.5554C41.13 32.9151 40.9288 33.3509 40.9288 33.8691C40.9288 34.1281 40.9654 34.378 41.0355 34.6219C41.1086 34.8657 41.2427 35.1461 41.4439 35.46C41.645 35.777 41.9315 36.155 42.3034 36.5999C42.6752 37.0449 43.1507 37.6118 43.7237 38.3007L51.8584 47.7277H49.0605L49.0575 47.7308Z" fill="white"/>
  <path d="M52.4641 48.0082H49.0566C48.5933 48.0082 48.188 47.7827 47.8466 47.3407L41.0102 39.3005C40.166 38.2825 39.5686 37.4321 39.2303 36.7707C38.8828 36.088 38.706 35.3565 38.706 34.6007C38.706 33.8814 38.8981 33.2596 39.279 32.7537C39.6387 32.2751 40.0898 31.8302 40.6262 31.4278C41.1443 31.0408 41.7051 30.6445 42.2964 30.2544C42.8694 29.8765 43.415 29.4528 43.9179 28.9896C44.4086 28.5385 44.8231 27.999 45.1523 27.3864C45.4723 26.7859 45.6369 26.0392 45.6369 25.1706C45.6369 23.6314 45.1523 22.4549 44.1587 21.568C43.1681 20.6872 41.8057 20.2391 40.105 20.2391H35.0455V48.0021H31.9062V18.6055H40.5774C43.1498 18.6055 45.2468 19.1815 46.8103 20.3153C48.4013 21.4705 49.2059 23.031 49.2059 24.9542C49.2059 25.9752 48.9896 26.8621 48.5659 27.5906C48.1483 28.3038 47.6302 28.9225 47.0176 29.4284C46.4171 29.9283 45.7527 30.358 45.0486 30.7116C44.369 31.0529 43.7289 31.3974 43.1498 31.7357C42.5799 32.0679 42.0953 32.4123 41.7082 32.7567C41.3668 33.0615 41.1992 33.4242 41.1992 33.8631C41.1992 34.0947 41.2327 34.3203 41.2967 34.5367C41.3607 34.7531 41.4887 35.0121 41.6747 35.3047C41.8667 35.6095 42.1501 35.9814 42.5128 36.4172C42.8847 36.8622 43.3601 37.4291 43.9331 38.1179L52.4641 48.0021V48.0082ZM34.4878 19.6875H40.105C41.9459 19.6875 43.4363 20.1812 44.5305 21.1565C45.6338 22.141 46.1947 23.4912 46.1947 25.1736C46.1947 26.1337 46.0087 26.9658 45.646 27.6515C45.2894 28.3221 44.8353 28.9134 44.2958 29.4041C43.7716 29.8856 43.2016 30.3306 42.6043 30.7238C42.0221 31.1078 41.4705 31.4949 40.9615 31.8759C40.4677 32.2447 40.0532 32.6531 39.7271 33.0889C39.4223 33.4974 39.2669 34.0063 39.2669 34.6007C39.2669 35.2712 39.4223 35.9143 39.7301 36.5178C40.0501 37.1426 40.6232 37.9594 41.44 38.9408L48.2824 46.9872C48.5232 47.3011 48.7762 47.4474 49.0597 47.4474H51.248L43.5095 38.4806C42.9334 37.7887 42.458 37.2218 42.0861 36.7768C41.7082 36.3258 41.4095 35.9326 41.2022 35.6065C40.9858 35.2651 40.8395 34.9664 40.7603 34.6952C40.6811 34.4269 40.6414 34.1465 40.6414 33.8631C40.6414 33.2657 40.8761 32.7537 41.3364 32.3422C41.7509 31.9734 42.266 31.6077 42.8664 31.2541C43.4577 30.9097 44.1069 30.5592 44.7987 30.2118C45.4662 29.8795 46.091 29.4711 46.661 28.9987C47.2218 28.5354 47.7003 27.9655 48.0843 27.3071C48.4592 26.664 48.6482 25.8716 48.6482 24.9511C48.6482 23.1925 47.938 21.824 46.4812 20.7634C45.0151 19.6997 43.0279 19.1602 40.5744 19.1602H32.4579V47.4444H34.4848V19.6814L34.4878 19.6875Z" fill="white"/>
  <path d="M76.2089 47.127L73.67 40.5833H60.11L57.5712 47.127C57.4005 47.5294 57.1109 47.7305 56.7117 47.7305H55.9375L67.3 18.8916H67.7297L79.0922 47.7305H77.0684C76.666 47.7305 76.3795 47.5294 76.2089 47.127ZM73.2402 39.5074L66.9129 23.1495L60.5428 39.5074H73.2402Z" fill="white"/>
  <path d="M79.5041 48.008H77.0719C76.5568 48.008 76.1697 47.7398 75.9563 47.2369V47.2277L73.4815 40.8638H60.3025L57.8307 47.2277C57.6112 47.7428 57.2242 48.008 56.7091 48.008H55.5234L67.1084 18.6113H67.9191L79.5041 48.008ZM76.4684 47.0205C76.5964 47.3161 76.7823 47.4503 77.0719 47.4503H78.6842L67.5412 19.166H67.4894L56.3464 47.4503H56.7121C57.0017 47.4503 57.1876 47.3161 57.3156 47.0174L59.9215 40.3061H73.8624L76.4684 47.0205ZM73.6461 39.7849H60.1349L66.9133 22.3785L73.6461 39.7849ZM60.9486 39.2301H72.8323L66.9103 23.9207L60.9486 39.2301Z" fill="white"/>
  <path d="M87.7062 47.7305V18.8916H88.1359L107.075 42.4364V23.9053H108.368V47.7305H108.151L88.9954 23.9693V47.7305H87.7031H87.7062Z" fill="white"/>
  <path d="M108.649 48.008H108.021L107.939 47.9044L89.2797 24.7589V48.008H87.4297V18.6113H88.2709L106.799 41.6441V18.6235H108.649V48.008ZM87.9875 47.4503H88.722V23.177L108.091 47.2034V24.1798H107.357V43.2229L88.0057 19.166H87.9875V47.4503Z" fill="white"/>
  <path d="M116.977 18.8887H119.171C119.631 18.8887 119.945 19.0746 120.119 19.4495L128.083 34.0427L136.09 19.4495C136.291 19.0776 136.605 18.8887 137.038 18.8887H137.854L128.772 35.2466V47.7306H126.19V35.591L116.98 18.8887H116.977Z" fill="white"/>
  <path d="M129.053 48.0081H125.914V35.6612L116.508 18.6084H119.175C119.885 18.6084 120.217 18.9924 120.369 19.3216L128.084 33.4576L135.847 19.3125C136.093 18.8522 136.508 18.6084 137.038 18.6084H138.331L129.053 35.3168V48.0051V48.0081ZM126.468 47.4504H128.495V35.1735L137.383 19.1662H137.038C136.712 19.1662 136.49 19.2972 136.337 19.5807L128.084 34.6219L119.867 19.5654C119.742 19.2942 119.522 19.1692 119.172 19.1692H117.45L126.468 35.521V47.4534V47.4504Z" fill="white"/>
  <path d="M160.709 47.127L158.17 40.5833H144.61L142.071 47.127C141.9 47.5294 141.611 47.7305 141.212 47.7305H140.438L151.8 18.8916H152.23L163.592 47.7305H161.568C161.166 47.7305 160.88 47.5294 160.709 47.127ZM157.737 39.5074L151.41 23.1495L145.04 39.5074H157.737Z" fill="white"/>
  <path d="M164.004 48.008H161.572C161.057 48.008 160.67 47.7398 160.456 47.2369V47.2277L157.981 40.8638H144.803L142.331 47.2277C142.111 47.7428 141.724 48.008 141.209 48.008H140.023L151.608 18.6113H152.419L164.004 48.008ZM160.968 47.0205C161.096 47.3161 161.282 47.4503 161.572 47.4503H163.184L152.041 19.166H151.989L140.846 47.4503H141.212C141.502 47.4503 141.688 47.3161 141.816 47.0174L144.422 40.3061H158.362L160.968 47.0205ZM158.146 39.7849H144.635L151.413 22.3785L158.146 39.7849ZM145.452 39.2301H157.335L151.413 23.9207L145.452 39.2301Z" fill="white"/>
  <path d="M16.75 58.173H20.7183V58.8679H17.4998V60.846H20.505V61.5409H17.4998V63.7871H20.8799V64.4821H16.7531V58.1699L16.75 58.173Z" fill="white"/>
  <path d="M27.5304 59.4747C27.1555 58.9657 26.5581 58.7066 25.9516 58.7066C24.5435 58.7066 23.5438 59.9471 23.5438 61.3278C23.5438 62.7908 24.5343 63.949 25.9516 63.949C26.7197 63.949 27.3323 63.6381 27.7803 63.0651L28.3411 63.5375C27.7803 64.2964 26.9604 64.6439 25.9516 64.6439C24.1412 64.6439 22.7422 63.2449 22.7422 61.3278C22.7422 59.4107 24.0802 58.0117 25.9516 58.0117C26.8081 58.0117 27.6462 58.3074 28.1796 59.0023L27.5273 59.4747H27.5304Z" fill="white"/>
  <path d="M30.0859 61.3307C30.0859 59.4228 31.4666 58.0146 33.3837 58.0146C35.3008 58.0146 36.6815 59.4228 36.6815 61.3307C36.6815 63.2387 35.3008 64.6468 33.3837 64.6468C31.4666 64.6468 30.0859 63.2387 30.0859 61.3307ZM35.883 61.3307C35.883 59.8769 34.868 58.7096 33.3868 58.7096C31.9055 58.7096 30.8906 59.8769 30.8906 61.3307C30.8906 62.7846 31.9055 63.9519 33.3868 63.9519C34.868 63.9519 35.883 62.7846 35.883 61.3307Z" fill="white"/>
  <path d="M42.5078 58.1729H43.2576V63.7901H46.147V64.485H42.5078V58.1729Z" fill="white"/>
  <path d="M52.7686 62.0772C52.7686 63.4518 52.1255 64.6465 50.3882 64.6465C48.6509 64.6465 48.0078 63.4518 48.0078 62.0772V58.1729H48.7576V61.9705C48.7576 62.9854 49.1325 63.9486 50.3882 63.9486C51.6439 63.9486 52.0188 62.9854 52.0188 61.9705V58.1729H52.7686V62.0772Z" fill="white"/>
  <path d="M56.8732 61.1598L54.7519 58.1729H55.715L57.4187 60.6416L59.1042 58.1729H60.0399L57.9186 61.1598L60.2471 64.485H59.2566L57.3852 61.684L55.5047 64.485H54.5781L56.8793 61.1598H56.8732Z" fill="white"/>
  <path d="M66.8076 62.0772C66.8076 63.4518 66.1645 64.6465 64.4273 64.6465C62.69 64.6465 62.0469 63.4518 62.0469 62.0772V58.1729H62.7966V61.9705C62.7966 62.9854 63.1715 63.9486 64.4273 63.9486C65.683 63.9486 66.0579 62.9854 66.0579 61.9705V58.1729H66.8076V62.0772Z" fill="white"/>
  <path d="M69.4171 58.1729H71.0294C72.2516 58.1729 73.5439 58.3527 73.5439 59.9101C73.5439 60.8275 72.9465 61.4249 71.9651 61.5773L73.7573 64.485H72.8399L71.127 61.6505H70.1638V64.485H69.4141V58.1729H69.4171ZM70.1669 60.9556H70.8344C71.6634 60.9556 72.7423 60.9555 72.7423 59.9132C72.7423 59.0049 71.9499 58.8708 71.2184 58.8708H70.1669V60.9586V60.9556Z" fill="white"/>
  <path d="M77.0952 61.7663L74.7422 58.1729H75.6962L77.47 61.0257L79.2988 58.1729H80.1979L77.8449 61.7663V64.485H77.0952V61.7663Z" fill="white"/>
  <path d="M84.6641 58.1729H85.5114L87.4559 63.3634H87.4742L89.4797 58.1729H90.2721L87.8034 64.485H87.081L84.6641 58.1729Z" fill="white"/>
  <path d="M92.0469 58.1729H92.7967V64.485H92.0469V58.1729Z" fill="white"/>
  <path d="M95.4297 58.1729H96.1795V63.7901H99.0688V64.485H95.4297V58.1729Z" fill="white"/>
  <path d="M100.961 58.1729H101.711V63.7901H104.6V64.485H100.961V58.1729Z" fill="white"/>
  <path d="M108.544 58.1729H109.248L111.933 64.485H111.058L110.415 62.9336H107.257L106.605 64.485H105.758L108.541 58.1729H108.544ZM108.882 59.136H108.864L107.553 62.2387H110.128L108.879 59.136H108.882Z" fill="white"/>
  <path d="M113.836 58.1729H114.951L117.091 63.1226H117.109L119.267 58.1729H120.355V64.485H119.606V59.1878H119.587L117.323 64.485H116.869L114.604 59.1878H114.586V64.485H113.836V58.1729Z" fill="white"/>
  <path d="M123 58.173H126.968V58.8679H123.75V60.846H126.755V61.5409H123.75V63.7871H127.13V64.4821H123.003V58.1699L123 58.173Z" fill="white"/>
  <path d="M129.359 58.1729H130.304L133.959 63.4152H133.977V58.1729H134.727V64.485H133.782L130.127 59.2427H130.109V64.485H129.359V58.1729Z" fill="white"/>
  <path d="M141.597 58.8678H139.509V64.485H138.76V58.8678H136.672V58.1729H141.594V58.8678H141.597Z" fill="white"/>
  <path d="M146.543 59.2888C146.293 58.8865 145.848 58.7097 145.394 58.7097C144.732 58.7097 144.046 59.0206 144.046 59.7703C144.046 60.3494 144.366 60.6085 145.375 60.9285C146.357 61.2394 147.265 61.5625 147.265 62.7999C147.265 64.0374 146.186 64.6469 145.046 64.6469C144.315 64.6469 143.531 64.4062 143.102 63.7722L143.745 63.2449C144.013 63.7082 144.546 63.949 145.092 63.949C145.735 63.949 146.463 63.5741 146.463 62.8517C146.463 62.0745 145.936 61.9435 144.814 61.5686C143.921 61.2729 143.245 60.8828 143.245 59.8313C143.245 58.6183 144.287 58.0117 145.394 58.0117C146.098 58.0117 146.695 58.2068 147.158 58.7523L146.543 59.2888Z" fill="white"/>
</svg>