<svg xmlns="http://www.w3.org/2000/svg" width="60" height="60" viewBox="0 0 60 60" fill="none">
  <g clipPath="url(#clip0_2625_47859)">
    <path d="M59.2078 42.2244V58.7844C59.0078 59.4844 58.5078 59.6444 57.8378 59.6444C39.0078 59.6344 20.1778 59.6444 1.34781 59.6444C0.267812 59.6444 0.0078125 59.3844 0.0078125 58.3244C0.0078125 50.3744 0.0078125 42.4244 0.0078125 34.4744C0.0078125 33.4644 0.307812 33.1644 1.30781 33.1544C3.33781 33.1544 5.35781 33.1344 7.38781 33.1544C7.92781 33.1544 8.14781 33.0044 8.13781 32.4344C8.10781 30.8544 8.10781 29.2744 8.13781 27.6844C8.14781 27.1244 7.94781 26.9544 7.39781 26.9544C5.35781 26.9744 3.30781 26.9644 1.25781 26.9544C0.337812 26.9544 0.0078125 26.6044 0.0078125 25.6844C0.0078125 23.1344 0.0078125 20.5944 0.0078125 18.0444C0.0078125 17.0944 0.297813 16.8044 1.24781 16.8044C3.25781 16.8044 5.25781 16.8044 7.26781 16.8044C7.83448 16.8044 8.12115 16.5111 8.12781 15.9244C8.12781 13.9544 8.12781 11.9844 8.12781 10.0244C8.12781 8.95443 8.48781 8.59443 9.55781 8.59443C11.5678 8.59443 13.5678 8.59443 15.5778 8.59443C16.3178 8.59443 16.3378 8.57443 16.3378 7.85443C16.3378 5.77443 16.3378 3.68443 16.3378 1.60443C16.3378 0.854432 16.6578 0.504432 17.3978 0.424432C17.6678 0.394432 17.9378 0.404432 18.2078 0.404432C23.3578 0.414432 28.5078 0.414432 33.6578 0.414432C38.9078 0.414432 44.1578 0.414432 49.3978 0.414432C50.7278 0.414432 51.0178 0.714432 51.0178 2.05443C51.0178 4.40443 51.0178 6.76443 51.0178 9.11443C51.0178 10.2944 50.6878 10.6344 49.5078 10.6344C47.5178 10.6344 45.5378 10.6344 43.5478 10.6344C42.8278 10.6344 42.8078 10.6544 42.8078 11.3944C42.8078 12.9544 42.8278 14.5244 42.7978 16.0844C42.7878 16.6344 42.9478 16.8344 43.5178 16.8244C45.5778 16.7944 47.6478 16.8144 49.7078 16.8244C50.6878 16.8244 51.0078 17.1544 51.0178 18.1544C51.0178 20.1444 51.0178 22.1244 51.0178 24.1144C51.0178 24.9444 51.0178 24.9444 51.8678 24.9444C53.8578 24.9444 55.8378 24.9444 57.8278 24.9444C58.4678 24.9444 58.9578 25.1544 59.1978 25.7844V34.2344C58.9978 35.0044 58.4278 35.1744 57.7378 35.1744C55.7678 35.1744 53.8078 35.1744 51.8378 35.1744C51.0378 35.1744 51.0178 35.2044 51.0178 35.9744C51.0178 37.4744 51.0178 38.9844 51.0178 40.4844C51.0178 41.2544 51.0478 41.2844 51.8478 41.2844C53.8278 41.2844 55.8178 41.2844 57.7978 41.2844C58.4778 41.2844 59.0078 41.4944 59.1978 42.2244H59.2078ZM33.6878 10.6444C31.5078 10.6444 29.3278 10.6544 27.1478 10.6444C26.6478 10.6444 26.4678 10.8044 26.4678 11.3144C26.4878 12.9344 26.4878 14.5544 26.4678 16.1744C26.4678 16.6844 26.6578 16.8344 27.1478 16.8344C31.5078 16.8244 35.8678 16.8244 40.2278 16.8344C40.6978 16.8344 40.8778 16.6744 40.8778 16.1944C40.8578 14.5744 40.8578 12.9544 40.8778 11.3344C40.8778 10.7944 40.6878 10.6344 40.1678 10.6344C38.0078 10.6544 35.8478 10.6344 33.6878 10.6344V10.6444ZM9.15781 18.7644C6.99781 18.7644 4.83781 18.7744 2.67781 18.7644C2.13781 18.7644 1.91781 18.9044 1.92781 19.4844C1.95781 21.0644 1.95781 22.6444 1.92781 24.2244C1.91781 24.7844 2.09781 24.9644 2.65781 24.9644C6.97781 24.9444 11.2978 24.9444 15.6178 24.9644C16.1278 24.9644 16.3478 24.8244 16.3378 24.2744C16.3078 22.6744 16.3078 21.0744 16.3378 19.4744C16.3378 18.9444 16.1778 18.7644 15.6378 18.7744C13.4778 18.7944 11.3178 18.7744 9.15781 18.7744V18.7644ZM33.6778 33.1544C35.8378 33.1544 37.9978 33.1444 40.1578 33.1544C40.6678 33.1544 40.8878 33.0244 40.8778 32.4744C40.8478 30.8544 40.8578 29.2344 40.8778 27.6144C40.8778 27.1444 40.7178 26.9644 40.2378 26.9644C35.8578 26.9744 31.4778 26.9744 27.1078 26.9644C26.6178 26.9644 26.4678 27.1544 26.4778 27.6144C26.4978 29.2144 26.5078 30.8144 26.4778 32.4144C26.4678 32.9744 26.6478 33.1544 27.2078 33.1544C29.3678 33.1244 31.5278 33.1444 33.6878 33.1444L33.6778 33.1544ZM50.0078 33.1544C52.1678 33.1544 54.3278 33.1444 56.4878 33.1544C56.9978 33.1544 57.2178 33.0244 57.2078 32.4744C57.1778 30.8544 57.1878 29.2344 57.2078 27.6144C57.2078 27.1444 57.0478 26.9644 56.5678 26.9644C52.1878 26.9744 47.8078 26.9744 43.4378 26.9644C42.9478 26.9644 42.7978 27.1444 42.8078 27.6144C42.8278 29.2144 42.8378 30.8144 42.8078 32.4144C42.7978 32.9644 42.9678 33.1544 43.5378 33.1544C45.6978 33.1244 47.8578 33.1444 50.0178 33.1444L50.0078 33.1544ZM33.7378 43.3144C31.5378 43.3144 29.3378 43.3244 27.1378 43.3144C26.6278 43.3144 26.4578 43.4844 26.4678 43.9844C26.4878 45.6044 26.4878 47.2244 26.4678 48.8444C26.4678 49.3144 26.6078 49.4944 27.0978 49.4944C31.4778 49.4844 35.8578 49.4844 40.2278 49.4944C40.7078 49.4944 40.8678 49.3244 40.8678 48.8444C40.8478 47.2644 40.8678 45.6844 40.8678 44.1044C40.8678 43.3244 40.8578 43.3144 40.0978 43.3144C37.9778 43.3144 35.8578 43.3144 33.7378 43.3144ZM50.0078 43.3144C47.8478 43.3144 45.6878 43.3344 43.5278 43.3044C42.9578 43.3044 42.7978 43.4944 42.8078 44.0444C42.8378 45.6444 42.8278 47.2444 42.8078 48.8444C42.8078 49.3144 42.9578 49.4944 43.4478 49.4944C47.8278 49.4844 52.2078 49.4844 56.5778 49.4944C57.0578 49.4944 57.2178 49.3144 57.2078 48.8444C57.1878 47.2444 57.1778 45.6444 57.2078 44.0444C57.2178 43.4944 57.0478 43.3044 56.4778 43.3044C54.3178 43.3344 52.1578 43.3144 49.9978 43.3144H50.0078ZM9.07781 57.6944C11.2578 57.6944 13.4378 57.6744 15.6178 57.7044C16.1878 57.7044 16.3578 57.5144 16.3478 56.9644C16.3178 55.3644 16.3278 53.7644 16.3478 52.1644C16.3478 51.6944 16.1978 51.5044 15.7178 51.5144C11.3378 51.5244 6.95781 51.5244 2.57781 51.5144C2.09781 51.5144 1.93781 51.6944 1.94781 52.1644C1.96781 53.7444 1.94781 55.3244 1.94781 56.9044C1.94781 57.6744 1.95781 57.6944 2.71781 57.6944C4.83781 57.6944 6.95781 57.6944 9.08781 57.6944H9.07781ZM25.4578 8.60443C27.6378 8.60443 29.8178 8.59443 31.9978 8.60443C32.4978 8.60443 32.6778 8.43443 32.6678 7.93443C32.6478 6.31443 32.6478 4.69443 32.6678 3.07443C32.6678 2.55443 32.4678 2.41443 31.9778 2.41443C27.6578 2.42443 23.3378 2.42443 19.0178 2.41443C18.5178 2.41443 18.3278 2.58443 18.3378 3.08443C18.3578 4.66443 18.3378 6.24443 18.3378 7.82443C18.3378 8.55443 18.3778 8.59443 19.1378 8.59443C21.2378 8.59443 23.3378 8.59443 25.4378 8.59443L25.4578 8.60443ZM41.8478 8.60443C44.0078 8.60443 46.1678 8.59443 48.3278 8.60443C48.8278 8.60443 49.0178 8.44443 49.0078 7.93443C48.9878 6.31443 48.9878 4.69443 49.0078 3.07443C49.0078 2.56443 48.8178 2.40443 48.3278 2.41443C44.0078 2.42443 39.6978 2.42443 35.3778 2.41443C34.8778 2.41443 34.6878 2.57443 34.6978 3.08443C34.7178 4.68443 34.7278 6.28443 34.6978 7.88443C34.6878 8.44443 34.8878 8.61443 35.4378 8.61443C37.5778 8.59443 39.7178 8.61443 41.8578 8.60443H41.8478ZM17.2678 16.8244C19.4278 16.8244 21.5878 16.8144 23.7478 16.8244C24.2678 16.8244 24.4778 16.6744 24.4678 16.1344C24.4478 14.5344 24.4478 12.9344 24.4678 11.3344C24.4678 10.8044 24.2778 10.6244 23.7578 10.6344C19.4578 10.6444 15.1578 10.6444 10.8578 10.6344C10.3378 10.6344 10.1378 10.7844 10.1478 11.3344C10.1778 12.9344 10.1778 14.5344 10.1478 16.1344C10.1478 16.6644 10.3178 16.8444 10.8478 16.8344C12.9878 16.8144 15.1278 16.8344 17.2678 16.8344V16.8244ZM25.5178 18.7644C23.3578 18.7644 21.1978 18.7744 19.0378 18.7644C18.5478 18.7644 18.3378 18.9144 18.3478 19.4244C18.3678 21.0444 18.3678 22.6644 18.3478 24.2844C18.3478 24.7844 18.5278 24.9644 19.0278 24.9544C23.3478 24.9444 27.6678 24.9444 31.9878 24.9544C32.5378 24.9544 32.6778 24.7444 32.6678 24.2344C32.6478 22.6544 32.6378 21.0744 32.6678 19.4944C32.6778 18.9344 32.4978 18.7544 31.9378 18.7644C29.7978 18.7944 27.6578 18.7744 25.5178 18.7744V18.7644ZM41.8378 18.7644C39.6778 18.7644 37.5178 18.7744 35.3578 18.7644C34.8578 18.7644 34.6778 18.9344 34.6778 19.4344C34.6978 21.0544 34.6978 22.6744 34.6778 24.2944C34.6778 24.8044 34.8678 24.9644 35.3578 24.9644C39.6778 24.9544 43.9978 24.9544 48.3078 24.9644C48.8078 24.9644 48.9878 24.7944 48.9878 24.2944C48.9678 22.6944 48.9578 21.0944 48.9878 19.4944C48.9978 18.9244 48.7878 18.7644 48.2478 18.7744C46.1078 18.7944 43.9678 18.7844 41.8278 18.7844L41.8378 18.7644ZM17.2978 33.1544C19.4578 33.1544 21.6178 33.1544 23.7778 33.1544C24.2678 33.1544 24.4778 33.0044 24.4678 32.4944C24.4478 30.8744 24.4478 29.2544 24.4678 27.6344C24.4678 27.1344 24.2778 26.9644 23.7878 26.9644C19.4678 26.9744 15.1478 26.9844 10.8278 26.9644C10.2778 26.9644 10.1378 27.1744 10.1478 27.6844C10.1678 29.2644 10.1778 30.8444 10.1478 32.4244C10.1378 32.9844 10.3278 33.1644 10.8778 33.1544C13.0178 33.1244 15.1578 33.1444 17.2978 33.1444V33.1544ZM17.3578 43.3144C15.1778 43.3144 12.9978 43.3244 10.8178 43.3144C10.3178 43.3144 10.1378 43.4844 10.1478 43.9844C10.1678 45.6044 10.1678 47.2244 10.1478 48.8444C10.1478 49.3644 10.3478 49.5044 10.8378 49.5044C15.1578 49.4944 19.4778 49.4944 23.7978 49.5044C24.2978 49.5044 24.4878 49.3344 24.4778 48.8344C24.4578 47.2744 24.4778 45.7144 24.4778 44.1544C24.4778 43.3544 24.4478 43.3344 23.6778 43.3344C21.5778 43.3344 19.4778 43.3344 17.3778 43.3344L17.3578 43.3144ZM25.5178 57.6944C27.6578 57.6944 29.7978 57.6744 31.9378 57.7044C32.5078 57.7044 32.6778 57.5144 32.6678 56.9644C32.6378 55.3644 32.6478 53.7644 32.6678 52.1644C32.6678 51.7044 32.5278 51.5044 32.0378 51.5044C27.6978 51.5144 23.3578 51.5144 19.0178 51.5044C18.5178 51.5044 18.3378 51.6944 18.3378 52.1844C18.3578 53.7644 18.3378 55.3444 18.3378 56.9244C18.3378 57.6444 18.3778 57.6844 19.0878 57.6844C21.2278 57.6844 23.3678 57.6844 25.5078 57.6844L25.5178 57.6944ZM41.8378 57.6944C43.9978 57.6944 46.1578 57.6844 48.3178 57.6944C48.8078 57.6944 49.0078 57.5444 48.9978 57.0344C48.9778 55.4144 48.9778 53.7944 48.9978 52.1744C48.9978 51.6744 48.8278 51.4944 48.3178 51.5044C43.9978 51.5144 39.6778 51.5144 35.3678 51.5044C34.8178 51.5044 34.6778 51.7244 34.6878 52.2344C34.7078 53.8144 34.7178 55.3944 34.6878 56.9744C34.6778 57.5344 34.8678 57.7144 35.4278 57.7044C37.5678 57.6744 39.7078 57.6944 41.8478 57.6944H41.8378ZM9.13781 41.2844C11.2978 41.2844 13.4578 41.2744 15.6178 41.2844C16.1278 41.2844 16.3478 41.1344 16.3378 40.5944C16.3078 39.0144 16.3078 37.4344 16.3378 35.8444C16.3378 35.2944 16.1178 35.1544 15.6178 35.1544C11.2978 35.1644 6.97781 35.1644 2.65781 35.1544C2.08781 35.1544 1.92781 35.3644 1.93781 35.9044C1.96781 37.3844 1.93781 38.8744 1.93781 40.3644C1.93781 41.2744 1.93781 41.2744 2.82781 41.2744C4.92781 41.2744 7.03781 41.2744 9.13781 41.2744V41.2844ZM25.5278 41.2844C27.6678 41.2844 29.8078 41.2744 31.9478 41.2844C32.4678 41.2844 32.6778 41.1244 32.6678 40.5844C32.6378 39.0244 32.6378 37.4644 32.6678 35.8944C32.6678 35.3444 32.4978 35.1444 31.9378 35.1444C27.6578 35.1644 23.3778 35.1444 19.0978 35.1544C18.4078 35.1544 18.3578 35.2144 18.3478 35.9344C18.3478 37.4544 18.3478 38.9844 18.3478 40.5044C18.3478 41.2144 18.3978 41.2644 19.1078 41.2744C21.2478 41.2744 23.3878 41.2744 25.5278 41.2744V41.2844ZM41.8778 35.1744C39.7178 35.1744 37.5578 35.1844 35.3978 35.1744C34.8778 35.1744 34.6778 35.3444 34.6878 35.8744C34.7078 37.4544 34.7078 39.0344 34.6878 40.6144C34.6878 41.1144 34.8678 41.2944 35.3678 41.2944C39.6878 41.2844 44.0078 41.2844 48.3278 41.2944C48.8178 41.2944 49.0178 41.1244 49.0078 40.6244C48.9878 39.0644 49.0078 37.5044 49.0078 35.9444C49.0078 35.2244 48.9678 35.1844 48.2578 35.1844C46.1378 35.1844 44.0178 35.1844 41.8978 35.1844L41.8778 35.1744ZM5.00781 49.4844C5.85781 49.4844 6.70781 49.4844 7.55781 49.4844C7.94781 49.4844 8.12781 49.3444 8.11781 48.9444C8.11781 47.2444 8.11781 45.5544 8.11781 43.8544C8.11781 43.4544 7.94781 43.3044 7.55781 43.3144C5.87781 43.3144 4.19781 43.3244 2.52781 43.3144C2.11781 43.3144 1.93781 43.4544 1.93781 43.8844C1.94781 45.5644 1.94781 47.2444 1.93781 48.9144C1.93781 49.3444 2.10781 49.4944 2.52781 49.4844C3.35781 49.4644 4.18781 49.4844 5.01781 49.4844H5.00781ZM57.1978 54.6744C57.1978 53.8244 57.1778 52.9744 57.1978 52.1244C57.2078 51.6744 57.0278 51.5044 56.5878 51.5144C54.9278 51.5244 53.2678 51.5244 51.6078 51.5144C51.1978 51.5144 51.0078 51.6544 51.0178 52.0844C51.0278 53.7644 51.0278 55.4444 51.0178 57.1144C51.0178 57.5344 51.1778 57.6944 51.5978 57.6944C53.2778 57.6844 54.9578 57.6844 56.6278 57.6944C57.0678 57.6944 57.1978 57.5044 57.1878 57.0944C57.1678 56.2844 57.1878 55.4744 57.1878 54.6644L57.1978 54.6744Z" fill="#4A3121"/>
  </g>
  <defs>
    <clipPath id="clip0_2625_47859">
      <rect width="59.21" height="59.23" fill="white" transform="translate(0 0.414551)"/>
    </clipPath>
  </defs>
</svg>